Coordinates
version=1
nRows=13
nColumns=36
inDegrees=yes

Units are S.I. units (second, meters, Newtons, ...)
If the header above contains a line with 'inDegrees', this indicates whether rotational values are in degrees (yes) or radians (no).

endheader
time	pelvis_tilt	pelvis_list	pelvis_rotation	pelvis_tx	pelvis_ty	pelvis_tz	hip_flexion_r	hip_adduction_r	hip_rotation_r	knee_angle_r	knee_angle_r_beta	ankle_angle_r	subtalar_angle_r	mtp_angle_r	hip_flexion_l	hip_adduction_l	hip_rotation_l	knee_angle_l	knee_angle_l_beta	ankle_angle_l	subtalar_angle_l	mtp_angle_l	lumbar_extension	lumbar_bending	lumbar_rotation	arm_flex_r	arm_add_r	arm_rot_r	elbow_flex_r	pro_sup_r	arm_flex_l	arm_add_l	arm_rot_l	elbow_flex_l	pro_sup_l
      1.43333330	      2.59652640	      0.71247950	     -6.03430229	     -0.07747076	      1.24245041	     -0.05569414	     -3.84358834	     -3.03522532	     11.98343086	      0.35744966	      0.00623867	     10.41393702	     -6.81521484	     -7.49999987	     -3.59052766	     -0.44047937	     -0.63328505	      7.71837251	      0.13471101	      9.20737794	     -7.50892193	     -7.49999987	     -5.48456426	     -0.22695637	     -0.80217040	      9.24315929	     -9.53050981	     18.61189254	     23.63508373	     93.84160132	      3.46646647	    -10.82814902	     15.05140048	     21.07218138	     99.17493015
      1.45000000	      2.78740836	      0.69210376	     -6.09026028	     -0.07592935	      1.24310156	     -0.05562907	     -4.15579815	     -3.03779354	     12.25169244	      0.35965299	      0.00627713	     10.49790362	     -6.91863451	     -7.49999987	     -3.92262778	     -0.42813056	     -0.65764903	      7.73945195	      0.13507892	      9.21155035	     -7.48756624	     -7.49999987	     -5.65996379	     -0.24770477	     -0.79806236	      9.45114435	     -9.67625723	     19.84064794	     23.48779231	     91.93452132	      3.51931032	    -10.99282950	     16.11874459	     21.13287205	     96.87456409
      1.46666670	      2.85401764	      0.67562717	     -6.12833562	     -0.07743190	      1.24029993	     -0.05573715	     -4.24354599	     -2.98758436	     12.46212842	      0.35787724	      0.00624614	     10.57534470	     -6.89858952	     -7.49999987	     -4.08718235	     -0.40974340	     -0.50637968	      7.79271169	      0.13600848	      9.32893018	     -7.59761551	     -7.49999987	     -5.78647822	     -0.25756669	     -0.91687383	      9.56160988	     -9.63599439	     19.11957447	     23.63933772	     93.93120499	      3.57646372	    -11.03241301	     15.26506532	     21.52271792	     99.04315591
      1.48333330	      2.88620108	      0.62909790	     -6.24060461	     -0.07613731	      1.24056705	     -0.05566186	     -4.35140003	     -2.94411853	     12.81293932	      0.35129152	      0.00613119	     10.59797162	     -7.07929199	     -7.49999987	     -4.27677022	     -0.43991875	     -0.66534721	      7.90391744	      0.13794938	      9.23581885	     -7.76830633	     -7.49999987	     -5.78401814	     -0.24050613	     -1.02716216	      9.68657639	     -9.68697640	     19.76423812	     23.63136965	     92.07859837	      3.72451204	    -11.10341709	     15.90619488	     21.80809596	     96.70123738
      1.50000000	      3.19266293	      0.60969479	     -6.20344346	     -0.07763105	      1.24405636	     -0.05573224	     -4.74123119	     -2.95183132	     12.71412560	      0.34748585	      0.00606477	     10.86907410	     -6.64747182	     -7.49999987	     -4.69990876	     -0.42597172	     -0.65353274	      7.99043363	      0.13945938	      9.17064193	     -8.00143756	     -7.49999987	     -6.30586940	     -0.27569929	     -1.06881493	      9.74243094	     -9.80022693	     19.89448936	     24.20811786	     89.56526421	      3.88465615	    -11.18709322	     16.05404724	     22.61077601	     94.00695527
      1.51666670	      3.02992883	      0.60976785	     -6.33679399	     -0.07570333	      1.24433446	     -0.05555942	     -4.52323089	     -2.92530502	     13.32722752	      0.34411933	      0.00600602	     10.55006825	     -7.49175408	     -7.49999987	     -4.65617820	     -0.41690256	     -0.74942840	      8.10684691	      0.14149117	      9.32480337	     -7.87427853	     -7.49999987	     -6.00935339	     -0.26360372	     -1.08942899	     10.16346037	     -9.89158655	     21.09733581	     23.95016798	     89.96194712	      4.06576235	    -11.30974427	     17.11669035	     22.37029637	     94.64732633
      1.53333330	      3.07049308	      0.58784788	     -6.36982590	     -0.07713507	      1.24451836	     -0.05553212	     -4.56817597	     -2.88888594	     13.34424385	      0.34091153	      0.00595003	     10.59395055	     -7.22541475	     -7.49999987	     -4.59253931	     -0.45453000	     -0.63138315	      8.41641001	      0.14689407	      9.40046364	     -8.13837803	     -7.49999987	     -6.22353422	     -0.28737219	     -1.07433227	     10.23498988	     -9.87857201	     19.46421353	     24.44418310	     93.85798933	      4.04713222	    -11.21611733	     14.90436412	     23.08716863	     99.53685312
      1.55000000	      3.11189935	      0.54225821	     -6.43959429	     -0.07558405	      1.24900534	     -0.05558297	     -4.58581309	     -2.81892000	     13.55396520	      0.34544832	      0.00602921	     10.56616269	     -7.31071197	     -7.49999987	     -4.62188626	     -0.48455535	     -0.53474379	      8.58669930	      0.14986617	      9.47139532	     -8.23416758	     -7.49999987	     -6.41262072	     -0.24094831	     -1.01800118	     10.51324203	    -10.06116018	     20.18081986	     24.84715703	     92.98575844	      4.15256299	    -11.32400695	     15.51859650	     23.37710881	     98.63746314
      1.56666670	      3.11618722	      0.50232172	     -6.45061708	     -0.07709790	      1.24897531	     -0.05559952	     -4.54909229	     -2.76626237	     13.77336890	      0.35212184	      0.00614569	     10.45477113	     -7.47660765	     -7.49999987	     -4.55030752	     -0.52448525	     -0.49991481	      8.84474956	      0.15437000	      9.51185091	     -8.34362269	     -7.49999987	     -6.67163728	     -0.21316118	     -1.03167099	     10.76368257	    -10.04474258	     19.53249485	     25.26394720	     93.56475323	      4.24538097	    -11.29983752	     14.53974810	     23.96993231	     99.80001368
      1.58333330	      3.03528487	      0.52833660	     -6.35421235	     -0.08469503	      1.24875432	     -0.06021409	     -4.38875202	     -2.78753583	     13.90615736	      0.36538762	      0.00637722	     10.42348050	     -7.44242863	     -7.49999987	     -4.25765440	     -0.54671962	     -0.68693381	      9.15900864	      0.15985486	      9.31156456	     -8.42835499	     -7.49999987	     -6.96234807	     -0.22452764	     -1.17939663	     11.19833583	    -10.09953142	     19.49849877	     25.39214709	     93.55763205	      4.90205503	    -11.36550219	     14.51651467	     24.21751620	     99.79971942
      1.60000000	      3.02269684	      0.48387273	     -6.29457110	     -0.08609279	      1.24877759	     -0.06014470	     -4.24898829	     -2.73577110	     14.15178761	      0.37723955	      0.00658407	     10.13216270	     -7.84029185	     -7.49999987	     -3.95648762	     -0.60094492	     -0.55029679	      9.60926929	      0.16771339	      9.37303226	     -8.91857870	     -7.49999987	     -7.48267348	     -0.07189038	     -1.26018743	     11.99999513	    -10.31938298	     20.43870938	     25.88028287	     91.83725664	      5.48075797	    -11.62624974	     15.58301000	     24.98814841	     98.28102655
      1.61666670	      3.05275647	      0.45820820	     -6.31070702	     -0.08406367	      1.25255169	     -0.06015800	     -4.17897428	     -2.70269401	     14.18585485	      0.40569650	      0.00708074	     10.06376689	     -7.63942195	     -7.49999987	     -3.68724120	     -0.62048265	     -0.65074791	     10.06304018	      0.17563318	      9.56431727	     -8.93421029	     -7.49999987	     -8.14561939	     -0.00213977	     -1.22505895	     12.59611910	    -10.49657174	     20.45750938	     26.79527626	     88.66356509	      5.82982626	    -11.74073545	     15.59282558	     25.72100090	     94.35977199
      1.63333330	      2.96888254	      0.39088424	     -6.15330539	     -0.08549485	      1.25236470	     -0.06015644	     -3.99287784	     -2.61019539	     14.26888062	      0.43631348	      0.00761511	     10.01656934	     -7.66376097	     -7.49999987	     -3.21967817	     -0.71445166	     -0.49625661	     10.57589676	      0.18458422	      9.40665178	     -9.46435492	     -7.49999987	     -8.79318267	      0.18928203	     -1.17171409	     13.31790753	    -10.68999917	     20.52871199	     27.68262825	     87.26042338	      6.23658170	    -11.76746965	     15.56887591	     26.39474147	     93.18747691
